<svg id="barcode" width="178px" height="70px" x="0px" y="0px" viewBox="0 0 178 70" xmlns="http://www.w3.org/2000/svg" version="1.1" style="transform: translate(0,0)">
            <rect x="0" y="0" width="178" height="70" style="fill:#ffffff;"></rect>
            <g transform="translate(10, 10)" style="fill:#000000;">
              <rect x="0" y="0" width="4" height="50"></rect>
              <rect x="6" y="0" width="2" height="50"></rect>
              <rect x="12" y="0" width="6" height="50"></rect>
              <rect x="22" y="0" width="8" height="50"></rect>
              <rect x="32" y="0" width="2" height="50"></rect>
              <rect x="36" y="0" width="2" height="50"></rect>
              <rect x="44" y="0" width="2" height="50"></rect>
              <rect x="52" y="0" width="2" height="50"></rect>
              <rect x="60" y="0" width="4" height="50"></rect>
              <rect x="66" y="0" width="6" height="50"></rect>
              <rect x="74" y="0" width="2" height="50"></rect>
              <rect x="78" y="0" width="8" height="50"></rect>
              <rect x="88" y="0" width="6" height="50"></rect>
              <rect x="96" y="0" width="2" height="50"></rect>
              <rect x="102" y="0" width="4" height="50"></rect>
              <rect x="110" y="0" width="4" height="50"></rect>
              <rect x="116" y="0" width="6" height="50"></rect>
              <rect x="124" y="0" width="6" height="50"></rect>
              <rect x="132" y="0" width="4" height="50"></rect>
              <rect x="142" y="0" width="6" height="50"></rect>
              <rect x="150" y="0" width="2" height="50"></rect>
              <rect x="154" y="0" width="4" height="50"></rect>
            </g>
          </svg>